<?xml version="1.0" encoding="utf-8"?>
<!-- Generator: Adobe Illustrator 23.0.1, SVG Export Plug-In . SVG Version: 6.00 Build 0)  -->
<svg version="1.1" id="Camada_1" xmlns="http://www.w3.org/2000/svg" xmlns:xlink="http://www.w3.org/1999/xlink" x="0px" y="0px"
	 viewBox="0 0 80 80" style="enable-background:new 0 0 80 80;" xml:space="preserve">
<style type="text/css">
	.st0{opacity:0.25;fill:#8D6C9F;}
	.st1{fill:#66BFA1;}
	.st2{fill:#C5E4FA;}
	.st3{fill:#E3F2FF;}
	.st4{fill:#FFF8F8;}
	.st5{fill:#8D6C9F;}
</style>
<g>
	<path class="st0" d="M77.3,42.5c0-1-0.3-2-1-2.9l-4.1-5.1c-0.2-0.3-0.3-0.6-0.3-0.9c0-0.1,0-0.2,0-0.3l1-6.5c0-0.3,0.1-0.5,0.1-0.8
		c0-1.8-1.2-3.5-2.9-4.2l-6.1-2.4c-0.4-0.2-0.7-0.5-0.9-0.9l-1.4-3.8l-0.2-0.4v0l-0.7-1.9c-0.4-1.1-1.3-2-2.3-2.5v0
		c-0.8-0.4-1.8-0.5-2.7-0.4l-2.9,0.5l-3.6,0.6c-0.4,0.1-0.9,0-1.2-0.3l-5.1-4.1c-1.7-1.4-4.1-1.4-5.8,0L32,10.4
		c-0.3,0.3-0.8,0.4-1.2,0.3l-6.5-1c-0.2,0-0.5-0.1-0.7-0.1c-0.2,0-0.3,0-0.5,0c-0.1,0-0.1,0-0.2,0c-0.4,0.1-0.9,0.2-1.3,0.4v0
		c-1,0.5-1.9,1.4-2.3,2.5l-0.7,1.9v0.1L17,18.7c-0.2,0.4-0.5,0.7-0.9,0.9L10,21.9c-2,0.8-3.2,2.9-2.9,5l1,6.5c0,0.1,0,0.2,0,0.3
		c0,0.3-0.1,0.6-0.3,0.9l-4.1,5.1c-0.7,0.8-1,1.9-1,2.9c0,1,0.3,2,1,2.9l4.1,5.1c0.2,0.3,0.3,0.6,0.3,0.9c0,0.1,0,0.2,0,0.3l-1,6.5
		c0,0.3-0.1,0.5-0.1,0.8c0,1.8,1.2,3.5,2.9,4.2l6.1,2.4c0.4,0.2,0.7,0.5,0.9,0.9l1.4,3.7l0.2,0.4v0l0.7,1.9c0.4,1.1,1.3,2,2.3,2.5v0
		c0.8,0.4,1.8,0.5,2.7,0.4l2.9-0.5l3.6-0.6c0.4-0.1,0.9,0,1.2,0.3l5.1,4.1c1.7,1.4,4.1,1.4,5.8,0l5.1-4.1c0.3-0.3,0.8-0.4,1.2-0.3
		l6.5,1c0.2,0,0.5,0.1,0.7,0.1c0.2,0,0.3,0,0.5,0c0.1,0,0.1,0,0.2,0c0.4-0.1,0.9-0.2,1.3-0.4v0c1-0.5,1.9-1.4,2.3-2.5l0.7-1.9v-0.1
		l1.6-4.2c0.2-0.4,0.5-0.7,0.9-0.9l6.1-2.4c2-0.8,3.2-2.9,2.9-5l-1-6.5c0-0.1,0-0.2,0-0.3c0-0.3,0.1-0.6,0.3-0.9l4.1-5.1
		C76.9,44.5,77.3,43.5,77.3,42.5z"/>
	<path class="st1" d="M41.9,2.4L47,6.5c0.7,0.5,1.5,0.8,2.4,0.6l6.5-1c1.4-0.2,2.8,0.6,3.3,1.9l2.4,6.1c0.3,0.8,0.9,1.4,1.8,1.8
		l6.1,2.4c1.3,0.5,2.1,1.9,1.9,3.3l-1,6.5c-0.1,0.9,0.1,1.7,0.6,2.4l4.2,5.1c0.9,1.1,0.9,2.7,0,3.8L71,44.5
		c-0.5,0.7-0.8,1.5-0.6,2.4l1,6.5c0.2,1.4-0.6,2.8-1.9,3.3l-6.1,2.4c-0.8,0.3-1.4,0.9-1.8,1.8l-2.4,6.1c-0.5,1.3-1.9,2.1-3.3,1.9
		l-6.5-1c-0.9-0.1-1.7,0.1-2.4,0.6l-5.1,4.2c-1.1,0.9-2.7,0.9-3.8,0L33,68.5c-0.7-0.5-1.5-0.8-2.4-0.6l-6.5,1
		c-1.4,0.2-2.8-0.6-3.3-1.9l-2.4-6.1c-0.3-0.8-0.9-1.4-1.8-1.8l-6.1-2.4c-1.3-0.5-2.1-1.9-1.9-3.3l1-6.5c0.1-0.9-0.1-1.7-0.6-2.4
		l-4.2-5.1c-0.9-1.1-0.9-2.7,0-3.8L9,30.5c0.5-0.7,0.8-1.5,0.6-2.4l-1-6.5c-0.2-1.4,0.6-2.8,1.9-3.3l6.1-2.4
		c0.8-0.3,1.4-0.9,1.8-1.8l2.4-6.1c0.5-1.4,1.9-2.2,3.4-1.9l6.5,1c0.9,0.1,1.7-0.1,2.4-0.6l5.1-4.2C39.2,1.5,40.8,1.5,41.9,2.4z"/>
	<path class="st2" d="M59.8,37.5c0,11-8.9,19.8-19.8,19.8c-2.2,0-4.4-0.4-6.5-1.1c-3.5-1.2-6.6-3.4-8.9-6.3
		c-0.9-1.1-1.7-2.4-2.4-3.7c-1.3-2.7-2-5.7-2-8.7c0-11,8.9-19.8,19.8-19.8c3,0,6,0.7,8.7,2c1.3,0.7,2.6,1.5,3.7,2.4
		c2.9,2.3,5.1,5.4,6.3,8.9C59.5,33.1,59.8,35.3,59.8,37.5z"/>
	<path class="st3" d="M59.8,37.5c0,11-8.9,19.8-19.8,19.8c-2.2,0-4.4-0.4-6.5-1.1L58.7,31C59.5,33.1,59.8,35.3,59.8,37.5z
		 M56.8,26.8L29.3,54.3c-1.8-1.2-3.5-2.6-4.8-4.3L52.4,22C54.1,23.4,55.6,25,56.8,26.8z M48.7,19.7L22.2,46.2
		c-0.9-1.8-1.5-3.8-1.8-5.8l22.5-22.5C44.9,18.2,46.8,18.8,48.7,19.7z"/>
	<path class="st4" d="M48.6,31l-1.9,3.4l-3.4,1.9l3.4,1.9l1.9,3.5l1.9-3.5l3.4-1.9l-3.4-1.9L48.6,31z M33.5,24.9l-1.3,2.4l-2.4,1.3
		l2.4,1.3l1.3,2.4l1.3-2.4l2.4-1.3l-2.4-1.3L33.5,24.9z M33.6,42.8l-0.9,1.6l-1.6,0.9l1.6,0.9l0.9,1.6l0.9-1.6l1.6-0.9l-1.6-0.9
		L33.6,42.8z"/>
	<path class="st5" d="M77.3,37.5c0-1-0.3-2-1-2.9l-4.1-5.1c-0.2-0.3-0.3-0.6-0.3-0.9c0-0.1,0-0.2,0-0.3l1-6.5c0-0.3,0.1-0.5,0.1-0.8
		c0-1.8-1.2-3.5-2.9-4.2l-6.1-2.4c-0.4-0.2-0.7-0.5-0.9-0.9l-1.4-3.8l-0.2-0.4v0l-0.7-1.9c-0.4-1.1-1.3-2-2.3-2.5v0
		c-0.8-0.4-1.8-0.5-2.7-0.4l-2.9,0.5l-3.6,0.6c-0.4,0.1-0.9,0-1.2-0.3l-5.1-4.1c-1.7-1.4-4.1-1.4-5.8,0L32,5.4
		c-0.3,0.3-0.8,0.4-1.2,0.3l-6.5-1c-0.2,0-0.5-0.1-0.7-0.1c-0.2,0-0.3,0-0.5,0c-0.1,0-0.1,0-0.2,0c-0.4,0.1-0.9,0.2-1.3,0.4v0
		c-1,0.5-1.9,1.4-2.3,2.5l-0.7,1.9v0.1L17,13.7c-0.2,0.4-0.5,0.7-0.9,0.9L10,16.9c-2,0.8-3.2,2.9-2.9,5l1,6.5c0,0.1,0,0.2,0,0.3
		c0,0.3-0.1,0.6-0.3,0.9l-4.1,5.1c-0.7,0.8-1,1.9-1,2.9c0,1,0.3,2,1,2.9l4.1,5.1c0.2,0.3,0.3,0.6,0.3,0.9c0,0.1,0,0.2,0,0.3l-1,6.5
		c0,0.3-0.1,0.5-0.1,0.8c0,1.8,1.2,3.5,2.9,4.2l6.1,2.4c0.4,0.2,0.7,0.5,0.9,0.9l1.4,3.7l0.2,0.4v0l0.7,1.9c0.4,1.1,1.3,2,2.3,2.5v0
		c0.8,0.4,1.8,0.5,2.7,0.4l2.9-0.5l3.6-0.6c0.4-0.1,0.9,0,1.2,0.3l5.1,4.1c1.7,1.4,4.1,1.4,5.8,0l5.1-4.1c0.3-0.3,0.8-0.4,1.2-0.3
		l6.5,1c0.2,0,0.5,0.1,0.7,0.1c0.2,0,0.3,0,0.5,0c0.1,0,0.1,0,0.2,0c0.4-0.1,0.9-0.2,1.3-0.4v0c1-0.5,1.9-1.4,2.3-2.5l0.7-1.9v-0.1
		l1.6-4.2c0.2-0.4,0.5-0.7,0.9-0.9l6.1-2.4c2-0.8,3.2-2.9,2.9-5l-1-6.5c0-0.1,0-0.2,0-0.3c0-0.3,0.1-0.6,0.3-0.9l4.1-5.1
		C76.9,39.5,77.3,38.5,77.3,37.5z M73.9,38.5l-3.5,4.4l-0.6,0.7c-0.6,0.8-1,1.7-1,2.6c0,0.3,0,0.6,0.1,1l1,6.5c0,0,0,0,0,0l0,0
		c0.1,0.7-0.3,1.4-1,1.7l-6.1,2.4c-1.2,0.5-2.2,1.4-2.6,2.6l-2.4,6.1c-0.3,0.7-1,1.1-1.7,1l-6.5-1c-1.2-0.2-2.5,0.1-3.5,0.9L41,71.4
		c-0.6,0.5-1.4,0.5-1.9,0l-5.2-4.1c-1-0.8-2.3-1.2-3.6-1l-6.5,1c-0.7,0.1-1.4-0.3-1.7-1l-2.4-6.1c-0.5-1.2-1.4-2.2-2.6-2.6l-6.1-2.4
		c-0.7-0.3-1.1-1-1-1.7l0,0c0,0,0,0,0,0l1-6.5c0.1-0.3,0.1-0.6,0.1-0.9c0-0.9-0.4-1.8-0.9-2.6l-0.6-0.7l-3.5-4.4
		c-0.2-0.3-0.3-0.6-0.3-1c0-0.3,0.1-0.7,0.3-1l3.5-4.4l0.6-0.7c0.6-0.8,1-1.7,1-2.6c0-0.3,0-0.6-0.1-1l-1-6.5c0,0,0,0,0,0l0,0
		c-0.1-0.7,0.3-1.4,1-1.7l6.1-2.4c1.2-0.5,2.2-1.4,2.6-2.6l2.4-6.1c0.3-0.7,1-1.1,1.7-1l6.5,1c1.2,0.2,2.5-0.1,3.5-0.9L39,3.6
		c0.6-0.5,1.4-0.5,1.9,0l5.2,4.1c1,0.8,2.3,1.2,3.6,1l6.5-1c0.7-0.1,1.4,0.3,1.7,1l2.4,6.1c0.5,1.2,1.4,2.2,2.6,2.6l6.1,2.4
		c0.7,0.3,1.1,1,1,1.7l0,0c0,0,0,0,0,0l-1,6.5c-0.1,0.3-0.1,0.6-0.1,0.9c0,0.9,0.4,1.8,0.9,2.6l0.6,0.7l3.5,4.4
		c0.2,0.3,0.3,0.6,0.3,1C74.2,37.8,74.1,38.2,73.9,38.5z"/>
	<path class="st5" d="M42,16.2c-11.7-1.1-22.2,7.5-23.3,19.2c-0.1,0.7-0.1,1.4-0.1,2.1c0,0.8,0.7,1.5,1.5,1.5s1.5-0.7,1.5-1.5
		c0-10.1,8.2-18.3,18.3-18.3c0.6,0,1.2,0,1.7,0.1c0.8,0.1,1.6-0.5,1.7-1.4C43.5,17.1,42.9,16.3,42,16.2C42.1,16.2,42.1,16.2,42,16.2
		z M56.3,26c-0.7,0.4-1,1.4-0.5,2.1C58.7,33,59.1,39,57,44.4c-0.3,0.8,0.1,1.7,0.8,2c0.8,0.3,1.7-0.1,2-0.8c2.5-6.2,1.9-13.2-1.5-19
		C57.9,25.8,57,25.6,56.3,26z M52.8,23.9c0.8,0,1.5-0.7,1.5-1.5c0-0.4-0.2-0.9-0.5-1.2c-1.2-1-2.5-1.9-3.8-2.6
		c-0.7-0.4-1.7-0.1-2.1,0.6c-0.4,0.7-0.1,1.7,0.6,2.1c1.2,0.6,2.3,1.4,3.3,2.2C52.1,23.8,52.5,23.9,52.8,23.9z M54,49.4
		c-0.6-0.5-1.6-0.5-2.2,0.2c-0.5,0.6-0.5,1.4,0,2l2.2,2.2c0.6,0.5,1.6,0.5,2.2-0.2c0.5-0.6,0.5-1.4,0-2L54,49.4z M26,49.4l-2.2,2.2
		c-0.6,0.5-0.7,1.5-0.2,2.2c0.5,0.6,1.5,0.7,2.2,0.2c0.1-0.1,0.1-0.1,0.2-0.2l2.2-2.2c0.5-0.6,0.5-1.6-0.2-2.2
		C27.4,48.9,26.5,48.9,26,49.4z M40,54.3c-0.8,0-1.5,0.7-1.5,1.5v3.1c0,0.8,0.7,1.5,1.5,1.5s1.5-0.7,1.5-1.5v-3.1
		C41.5,55,40.8,54.3,40,54.3z M33.4,53c-0.8-0.3-1.7,0-2,0.8l-1.2,2.8c-0.4,0.8,0,1.7,0.7,2c0.8,0.4,1.7,0,2-0.7c0,0,0-0.1,0-0.1
		l1.2-2.8C34.6,54.2,34.2,53.3,33.4,53z M24.4,43.8c-0.3-0.8-1.2-1.2-2-0.8l-2.8,1.1c-0.8,0.3-1.2,1.1-1,1.9c0.3,0.8,1.1,1.2,1.9,1
		c0.1,0,0.1,0,0.2-0.1l2.8-1.1C24.4,45.5,24.7,44.6,24.4,43.8z M48.3,53.9c-0.3-0.8-1.1-1.2-1.9-1c-0.8,0.3-1.2,1.1-1,1.9
		c0,0.1,0,0.1,0.1,0.2l1.1,2.8c0.3,0.8,1.1,1.2,1.9,1c0.8-0.3,1.2-1.1,1-1.9c0-0.1,0-0.1-0.1-0.2L48.3,53.9z"/>
</g>
</svg>
