<?xml version="1.0" encoding="utf-8"?>
<!-- Generator: Adobe Illustrator 23.0.1, SVG Export Plug-In . SVG Version: 6.00 Build 0)  -->
<svg version="1.1" id="Camada_1" xmlns="http://www.w3.org/2000/svg" xmlns:xlink="http://www.w3.org/1999/xlink" x="0px" y="0px"
	 viewBox="0 0 80 80" style="enable-background:new 0 0 80 80;" xml:space="preserve">
<style type="text/css">
	.st0{opacity:0.5;fill:#8D6C9F;}
	.st1{fill:#ED7899;}
	.st2{fill:#C5E4FA;}
	.st3{fill:#E3F2FF;}
	.st4{fill:#FFF8F8;}
	.st5{fill:#8D6C9F;}
</style>
<g>
	<path class="st0" d="M76.6,43.4c0-1-0.3-2-1-2.8l-4-5c-0.2-0.3-0.3-0.6-0.3-0.9c0-0.1,0-0.2,0-0.3l1-6.3c0-0.3,0.1-0.5,0.1-0.8
		c0-1.8-1.2-3.4-2.9-4.1l-6-2.3c-0.4-0.2-0.7-0.5-0.9-0.9l-1.4-3.7L61,15.9v0L60.2,14c-0.4-1.1-1.3-1.9-2.3-2.4v0
		c-0.8-0.4-1.7-0.5-2.6-0.4l-2.8,0.4L49,12.2c-0.4,0.1-0.9,0-1.2-0.3l-5-4c-1.6-1.3-4-1.3-5.7,0l-5,4c-0.3,0.3-0.8,0.4-1.2,0.3
		l-6.3-1c-0.2,0-0.5-0.1-0.7-0.1c-0.1,0-0.3,0-0.4,0c-0.1,0-0.1,0-0.2,0c-0.4,0.1-0.8,0.2-1.2,0.4v0c-1,0.5-1.9,1.3-2.3,2.4L19,15.9
		v0.1L17.5,20c-0.2,0.4-0.5,0.7-0.9,0.9l-6,2.3c-2,0.8-3.2,2.8-2.8,4.9l1,6.3c0,0.1,0,0.2,0,0.3c0,0.3-0.1,0.6-0.3,0.9l-4,5
		c-0.7,0.8-1,1.8-1,2.8c0,1,0.3,2,1,2.8l4,5c0.2,0.3,0.3,0.6,0.3,0.9c0,0.1,0,0.2,0,0.3l-1,6.3c0,0.3-0.1,0.5-0.1,0.8
		c0,1.8,1.2,3.4,2.9,4.1l6,2.3c0.4,0.2,0.7,0.5,0.9,0.9l1.4,3.7l0.2,0.4v0l0.7,1.9c0.4,1.1,1.3,1.9,2.3,2.4v0
		c0.8,0.4,1.7,0.5,2.6,0.4l2.8-0.4l3.5-0.6c0.4-0.1,0.9,0,1.2,0.3l5,4c1.6,1.3,4,1.3,5.7,0l5-4c0.3-0.3,0.8-0.4,1.2-0.3l6.3,1
		c0.2,0,0.5,0.1,0.7,0.1c0.1,0,0.3,0,0.4,0c0.1,0,0.1,0,0.2,0c0.4-0.1,0.8-0.2,1.2-0.4v0c1-0.5,1.9-1.3,2.3-2.4L61,71v-0.1l1.6-4.1
		c0.2-0.4,0.5-0.7,0.9-0.9l6-2.3c2-0.8,3.2-2.8,2.8-4.9l-1-6.3c0-0.1,0-0.2,0-0.3c0-0.3,0.1-0.6,0.3-0.9l4-5
		C76.2,45.4,76.6,44.4,76.6,43.4z"/>
	<path class="st1" d="M41.9,2.1l5,4c0.7,0.5,1.5,0.8,2.4,0.6l6.3-1c1.4-0.2,2.8,0.6,3.3,1.9l2.3,6c0.3,0.8,0.9,1.4,1.7,1.7l6,2.3
		c1.3,0.5,2.1,1.9,1.9,3.3l-1,6.3c-0.1,0.8,0.1,1.7,0.6,2.4l4.1,5c0.9,1.1,0.9,2.7,0,3.8l-4,5c-0.5,0.7-0.8,1.5-0.6,2.4l1,6.3
		c0.2,1.4-0.6,2.8-1.9,3.3l-6,2.3c-0.8,0.3-1.4,0.9-1.7,1.7l-2.3,6c-0.5,1.3-1.9,2.1-3.3,1.9l-6.3-1c-0.8-0.1-1.7,0.1-2.4,0.6
		l-5,4.1c-1.1,0.9-2.7,0.9-3.8,0l-5-4c-0.7-0.5-1.5-0.8-2.4-0.6l-6.3,1c-1.4,0.2-2.8-0.6-3.3-1.9l-2.3-6c-0.3-0.8-0.9-1.4-1.7-1.7
		l-6-2.3c-1.3-0.5-2.1-1.9-1.9-3.3l1-6.3c0.1-0.8-0.1-1.7-0.6-2.4l-4.1-5c-0.9-1.1-0.9-2.7,0-3.8l4-5c0.5-0.7,0.8-1.5,0.6-2.4
		l-1-6.3c-0.2-1.4,0.6-2.8,1.9-3.3l6-2.3c0.8-0.3,1.4-0.9,1.7-1.7l2.3-6c0.5-1.3,1.9-2.1,3.3-1.9l6.3,1c0.8,0.1,1.7-0.1,2.4-0.6
		l5-4.1C39.2,1.2,40.8,1.2,41.9,2.1z"/>
	<path class="st2" d="M59.5,36.6C59.5,47.3,50.7,56,40,56c-2.2,0-4.3-0.4-6.4-1.1c-3.4-1.2-6.5-3.4-8.8-6.2
		c-0.9-1.1-1.7-2.4-2.3-3.7c-1.3-2.7-1.9-5.6-2-8.5c0-10.7,8.7-19.5,19.5-19.5c2.9,0,5.9,0.7,8.5,2c1.3,0.6,2.5,1.4,3.7,2.3
		c2.9,2.3,5,5.3,6.2,8.8C59.1,32.2,59.5,34.4,59.5,36.6z"/>
	<path class="st3" d="M59.5,36.6C59.5,47.3,50.7,56,40,56c-2.2,0-4.3-0.4-6.4-1.1l24.8-24.8C59.1,32.2,59.5,34.4,59.5,36.6z
		 M56.5,26.1L29.5,53c-1.8-1.1-3.4-2.6-4.7-4.3l27.4-27.4C53.9,22.7,55.3,24.3,56.5,26.1z M48.5,19.1l-26,26
		c-0.9-1.8-1.5-3.7-1.8-5.7l22-22C44.8,17.6,46.7,18.2,48.5,19.1z"/>
	<path class="st4" d="M48.5,30.2l-1.9,3.4l-3.4,1.9l3.4,1.9l1.9,3.4l1.9-3.4l3.4-1.9l-3.4-1.9L48.5,30.2z M33.6,24.3l-1.3,2.3
		L30,27.9l2.4,1.3l1.3,2.3l1.3-2.3l2.3-1.3l-2.3-1.3L33.6,24.3z M33.7,41.8l-0.9,1.6l-1.6,0.9l1.6,0.9l0.9,1.6l0.9-1.6l1.6-0.9
		l-1.6-0.9L33.7,41.8z"/>
	<path class="st5" d="M76.6,36.6c0-1-0.3-2-1-2.8l-4-5c-0.2-0.3-0.3-0.6-0.3-0.9c0-0.1,0-0.2,0-0.3l1-6.3c0-0.3,0.1-0.5,0.1-0.8
		c0-1.8-1.2-3.4-2.9-4.1l-6-2.3c-0.4-0.2-0.7-0.5-0.9-0.9l-1.4-3.7L61,9.1v0l-0.7-1.9C59.8,6.1,59,5.2,58,4.7v0
		c-0.8-0.4-1.7-0.5-2.6-0.4l-2.8,0.4L49,5.4c-0.4,0.1-0.9,0-1.2-0.3l-5-4c-1.6-1.3-4-1.3-5.7,0l-5,4c-0.3,0.3-0.8,0.4-1.2,0.3
		l-6.3-1c-0.2,0-0.5-0.1-0.7-0.1c-0.1,0-0.3,0-0.4,0c-0.1,0-0.1,0-0.2,0c-0.4,0.1-0.8,0.2-1.2,0.4v0c-1,0.5-1.9,1.3-2.3,2.4L19,9
		v0.1l-1.6,4.1c-0.2,0.4-0.5,0.7-0.9,0.9l-6,2.3c-2,0.8-3.2,2.8-2.8,4.9l1,6.3c0,0.1,0,0.2,0,0.3c0,0.3-0.1,0.6-0.3,0.9l-4,5
		c-0.7,0.8-1,1.8-1,2.8c0,1,0.3,2,1,2.8l4,5c0.2,0.3,0.3,0.6,0.3,0.9c0,0.1,0,0.2,0,0.3l-1,6.3c0,0.3-0.1,0.5-0.1,0.8
		c0,1.8,1.2,3.4,2.9,4.1l6,2.3c0.4,0.2,0.7,0.5,0.9,0.9l1.4,3.7l0.2,0.4v0l0.7,1.9c0.4,1.1,1.3,1.9,2.3,2.4v0
		c0.8,0.4,1.7,0.5,2.6,0.4l2.8-0.4l3.5-0.6c0.4-0.1,0.9,0,1.2,0.3l5,4c1.6,1.3,4,1.3,5.7,0l5-4c0.3-0.3,0.8-0.4,1.2-0.3l6.3,1
		c0.2,0,0.5,0.1,0.7,0.1c0.1,0,0.3,0,0.4,0c0.1,0,0.1,0,0.2,0c0.4-0.1,0.8-0.2,1.2-0.4v0c1-0.5,1.9-1.3,2.3-2.4l0.7-1.8v-0.1
		l1.6-4.1c0.2-0.4,0.5-0.7,0.9-0.9l6-2.3c2-0.8,3.2-2.8,2.8-4.9l-1-6.3c0-0.1,0-0.2,0-0.3c0-0.3,0.1-0.6,0.3-0.9l4-5
		C76.2,38.6,76.6,37.6,76.6,36.6z M73.2,37.5l-3.5,4.3l-0.6,0.7c-0.6,0.7-0.9,1.6-1,2.6c0,0.3,0,0.6,0,0.9l1,6.3c0,0,0,0,0,0l0,0
		c0.1,0.7-0.3,1.4-0.9,1.6l-6,2.3c-1.2,0.5-2.1,1.4-2.6,2.6l-2.3,6c-0.3,0.7-0.9,1.1-1.6,0.9l-6.3-1C48.2,64.7,47,65,46,65.8l-5,4
		c-0.5,0.4-1.3,0.4-1.9,0l-5.1-4c-1-0.8-2.3-1.1-3.5-0.9l-6.3,1c-0.7,0.1-1.4-0.3-1.6-0.9l-2.3-6c-0.5-1.2-1.4-2.1-2.6-2.6l-6-2.3
		c-0.7-0.3-1.1-0.9-0.9-1.6l0,0c0,0,0,0,0,0l1-6.3c0-0.3,0.1-0.6,0.1-0.9c0-0.9-0.4-1.8-0.9-2.5l-0.6-0.7l-3.5-4.3
		c-0.2-0.3-0.3-0.6-0.3-1c0-0.3,0.1-0.7,0.3-1l3.5-4.3l0.6-0.7c0.6-0.7,0.9-1.6,1-2.6c0-0.3,0-0.6,0-0.9l-1-6.3c0,0,0,0,0,0l0,0
		c-0.1-0.7,0.3-1.4,0.9-1.6l6-2.3c1.2-0.5,2.1-1.4,2.6-2.6l2.3-6c0.3-0.7,0.9-1.1,1.6-0.9l6.3,1C31.8,8.4,33,8.1,34,7.4l5-4
		c0.5-0.4,1.3-0.4,1.9,0l5.1,4c1,0.8,2.3,1.1,3.5,0.9l6.3-1c0.7-0.1,1.4,0.3,1.6,0.9l2.3,6c0.5,1.2,1.4,2.1,2.6,2.6l6,2.3
		c0.7,0.3,1.1,0.9,0.9,1.6l0,0c0,0,0,0,0,0l-1,6.3c0,0.3-0.1,0.6-0.1,0.9c0,0.9,0.4,1.8,0.9,2.5l0.6,0.7l3.5,4.3
		c0.2,0.3,0.3,0.6,0.3,1C73.6,36.9,73.5,37.2,73.2,37.5z"/>
	<path class="st5" d="M42,15.7C30.5,14.6,20.2,23,19.1,34.6c-0.1,0.7-0.1,1.3-0.1,2c0,0.8,0.7,1.5,1.5,1.5s1.5-0.7,1.5-1.5
		c0-9.9,8-18,18-18c0.6,0,1.1,0,1.7,0.1c0.8,0.1,1.6-0.5,1.6-1.3C43.4,16.5,42.8,15.8,42,15.7C42,15.7,42,15.7,42,15.7z M55.9,25.3
		c-0.7,0.4-0.9,1.3-0.5,2.1c2.9,4.8,3.3,10.7,1.2,16c-0.3,0.8,0.1,1.6,0.8,2c0.8,0.3,1.6-0.1,2-0.8c2.4-6.1,1.9-13-1.5-18.6
		C57.5,25.1,56.6,24.9,55.9,25.3z M52.6,23.2c0.8,0,1.5-0.7,1.5-1.5c0-0.4-0.2-0.9-0.5-1.1c-1.2-1-2.4-1.8-3.8-2.5
		c-0.7-0.4-1.6-0.1-2,0.6c-0.4,0.7-0.1,1.6,0.6,2c1.1,0.6,2.2,1.3,3.2,2.2C51.9,23.1,52.2,23.2,52.6,23.2z M53.8,48.2
		c-0.6-0.5-1.6-0.5-2.1,0.2c-0.5,0.6-0.5,1.4,0,1.9l2.1,2.1c0.6,0.5,1.6,0.5,2.1-0.2c0.5-0.6,0.5-1.4,0-1.9L53.8,48.2z M26.2,48.2
		l-2.1,2.1c-0.6,0.5-0.7,1.5-0.2,2.1c0.5,0.6,1.5,0.7,2.1,0.2c0.1-0.1,0.1-0.1,0.2-0.2l2.1-2.1c0.5-0.6,0.5-1.6-0.2-2.1
		C27.6,47.7,26.8,47.7,26.2,48.2z M40,53c-0.8,0-1.5,0.7-1.5,1.5v3c0,0.8,0.7,1.5,1.5,1.5s1.5-0.7,1.5-1.5v-3
		C41.5,53.7,40.8,53,40,53z M33.6,51.7c-0.8-0.3-1.6,0-2,0.8l-1.2,2.8c-0.4,0.7,0,1.6,0.7,2c0.7,0.4,1.6,0,2-0.7c0,0,0-0.1,0-0.1
		l1.2-2.8C34.7,52.9,34.3,52.1,33.6,51.7z M24.7,42.7c-0.3-0.8-1.2-1.1-1.9-0.8L20,43c-0.8,0.3-1.2,1.1-0.9,1.9
		c0.3,0.8,1.1,1.2,1.9,0.9c0.1,0,0.1,0,0.2-0.1l2.8-1.1C24.7,44.4,25,43.5,24.7,42.7z M48.1,52.7c-0.3-0.8-1.1-1.2-1.9-0.9
		c-0.8,0.3-1.2,1.1-0.9,1.9c0,0.1,0,0.1,0.1,0.2l1.1,2.8c0.3,0.8,1.1,1.2,1.9,0.9c0.8-0.3,1.2-1.1,0.9-1.9c0-0.1,0-0.1-0.1-0.2
		L48.1,52.7z"/>
</g>
</svg>
