<svg xmlns="http://www.w3.org/2000/svg" width="47.222" height="40" viewBox="0 0 47.222 40"><g transform="translate(0.5 -3.5)"><path d="M36.333,25.167A15.165,15.165,0,0,1,21.167,40.333a14.716,14.716,0,0,1-3.589-.433,15.019,15.019,0,0,1-6.161-3.12,13.435,13.435,0,0,1-1.278-1.206A14.269,14.269,0,0,1,8.5,33.5a14.055,14.055,0,0,1-.91-1.567,15.808,15.808,0,0,1-.9-2.2A15.384,15.384,0,0,1,6,25.167,15.174,15.174,0,0,1,25.731,10.7a14.939,14.939,0,0,1,2.2.888,14.056,14.056,0,0,1,1.567.91,14.733,14.733,0,0,1,2.08,1.639,14.275,14.275,0,0,1,1.2,1.278,15.019,15.019,0,0,1,3.12,6.161A14.716,14.716,0,0,1,36.333,25.167Z" transform="translate(-1.667 -1.667)" fill="#f9e3ae"/><path d="M32.205,5.308a18.778,18.778,0,1,1-.2,36.9" transform="translate(-8.889 -0.278)" fill="#f9e3ae"/><g transform="translate(-0.278 -0.278)" fill="#f6d397"><path d="M 19.77778053283691 43.0555534362793 C 17.1755199432373 43.0555534362793 14.65083026885986 42.54578399658203 12.273850440979 41.5404052734375 C 9.978200912475586 40.56943511962891 7.916610717773438 39.17950439453125 6.1463303565979 37.40922546386719 C 4.376060485839844 35.63895416259766 2.986120462417603 33.57735443115234 2.015150547027588 31.28171539306641 C 1.009770512580872 28.90473556518555 0.500000536441803 26.38004493713379 0.500000536441803 23.77777481079102 C 0.500000536441803 21.17551422119141 1.009770512580872 18.65082550048828 2.015150547027588 16.27384567260742 C 2.986120462417603 13.97819519042969 4.376060485839844 11.91660499572754 6.1463303565979 10.14633464813232 C 7.916610717773438 8.376054763793945 9.978200912475586 6.986124992370605 12.273850440979 6.015154838562012 C 14.65083026885986 5.009774684906006 17.1755199432373 4.500004768371582 19.77778053283691 4.500004768371582 C 22.38004112243652 4.500004768371582 24.90472984313965 5.009774684906006 27.28170967102051 6.015144824981689 C 29.57736015319824 6.986124992370605 31.63895034790039 8.376054763793945 33.40922927856445 10.14632511138916 C 35.17950057983398 11.91660499572754 36.56943893432617 13.97819519042969 37.54040908813477 16.27384567260742 C 38.54579162597656 18.65082550048828 39.05556106567383 21.17551422119141 39.05556106567383 23.77777481079102 C 39.05556106567383 26.38003540039063 38.54579162597656 28.90472412109375 37.54040908813477 31.28170394897461 C 36.56943893432617 33.57735443115234 35.17950057983398 35.63894653320313 33.40922927856445 37.40922546386719 C 31.63895034790039 39.17949295043945 29.57736015319824 40.56943511962891 27.28170967102051 41.5404052734375 C 24.90472984313965 42.54578399658203 22.38004112243652 43.0555534362793 19.77778053283691 43.0555534362793 Z" stroke="none"/><path d="M 19.77778053283691 4.999996185302734 C 9.407100677490234 4.999996185302734 1 13.4070930480957 1 23.77777481079102 C 1 34.14846420288086 9.407100677490234 42.5555534362793 19.77778053283691 42.5555534362793 C 30.14846038818359 42.5555534362793 38.55556106567383 34.14845275878906 38.55556106567383 23.77777481079102 C 38.55556106567383 13.4070930480957 30.14846038818359 4.999996185302734 19.77778053283691 4.999996185302734 M 19.77778053283691 3.999996185302734 C 22.44732093811035 3.999996185302734 25.03754043579102 4.523056030273438 27.47649002075195 5.554645538330078 C 29.83172988891602 6.550823211669922 31.94675064086914 7.976734161376953 33.76277923583984 9.792774200439453 C 35.57881927490234 11.60880661010742 37.00473022460938 13.72382354736328 38.00091171264648 16.07906532287598 C 39.03250122070313 18.51801490783691 39.55556106567383 21.10823440551758 39.55556106567383 23.77777481079102 C 39.55556106567383 26.44731521606445 39.03250122070313 29.03753471374512 38.00091171264648 31.47648429870605 C 37.00473022460938 33.83172607421875 35.57881927490234 35.94674682617188 33.76277923583984 37.76277542114258 C 31.94675064086914 39.57881546020508 29.83172988891602 41.00472640991211 27.47649002075195 42.00090408325195 C 25.03754043579102 43.03249359130859 22.44732093811035 43.5555534362793 19.77778053283691 43.5555534362793 C 17.10824012756348 43.5555534362793 14.51802062988281 43.03249359130859 12.07907104492188 42.00090408325195 C 9.723831176757813 41.00472640991211 7.608810424804688 39.57881546020508 5.792781829833984 37.76278686523438 C 3.976741790771484 35.94674682617188 2.550830841064453 33.83173370361328 1.554649353027344 31.47648429870605 C 0.5230598449707031 29.03754425048828 0 26.44731521606445 0 23.77777481079102 C 0 21.10823440551758 0.5230598449707031 18.51801490783691 1.554649353027344 16.07906532287598 C 2.550830841064453 13.72382354736328 3.976741790771484 11.60880661010742 5.792781829833984 9.792774200439453 C 7.608810424804688 7.976734161376953 9.723831176757813 6.550823211669922 12.07907104492188 5.554645538330078 C 14.51802062988281 4.523056030273438 17.10824012756348 3.999996185302734 19.77778053283691 3.999996185302734 Z" stroke="none" fill="#8d6c9f"/></g><path d="M36.167,21.847,17.844,40.169a15.019,15.019,0,0,1-6.161-3.12L33.047,15.686A15.019,15.019,0,0,1,36.167,21.847Zm-4.319-7.439L10.4,35.843a14.269,14.269,0,0,1-1.639-2.073l21-21A14.733,14.733,0,0,1,31.848,14.408ZM28.2,11.858,7.856,32.2a15.808,15.808,0,0,1-.9-2.2L26,10.97A14.939,14.939,0,0,1,28.2,11.858Z" transform="translate(-1.933 -1.936)" fill="#ffefca"/><path d="M12.45,21.648l.766,1.4,1.4.766-1.4.766-.766,1.4-.766-1.4-1.4-.766,1.4-.766ZM30,33.745l.361.659.659.361-.659.36L30,35.786l-.36-.659-.659-.36.659-.361ZM30.6,20l.617,1.13,1.13.618-1.13.618-.617,1.13-.618-1.13-1.13-.618,1.13-.618Z" transform="translate(-2.856 -4.444)" fill="#fff8f8"/><g transform="translate(0 4)"><path d="M26.722,4a19.662,19.662,0,0,0-3.536.32.579.579,0,0,0-.059.023A19.5,19.5,0,1,0,23.1,42.661,19.5,19.5,0,1,0,26.722,4ZM1.444,23.5A18.056,18.056,0,1,1,19.5,41.556,18.076,18.076,0,0,1,1.444,23.5ZM26.863,41.552a19.493,19.493,0,0,0,0-36.1,18.052,18.052,0,0,1,0,36.1Z" transform="translate(0 -4)" fill="#8d6c9f" stroke="#8d6c9f" stroke-width="1"/><path d="M30.56,12.431a.722.722,0,0,0,.327-1.366,15.8,15.8,0,0,0-1.589-.7.722.722,0,0,0-.506,1.353,14.393,14.393,0,0,1,1.444.632A.716.716,0,0,0,30.56,12.431ZM23.736,38.257a.722.722,0,0,0-.722.722v1.444a.722.722,0,1,0,1.444,0V38.979A.722.722,0,0,0,23.736,38.257Zm4.343.056a.722.722,0,0,0-1.4.374l.374,1.4a.722.722,0,0,0,.7.536.7.7,0,0,0,.188-.025.722.722,0,0,0,.511-.885ZM17.056,36.466a.723.723,0,0,0-.987.264l-.722,1.251A.722.722,0,1,0,16.6,38.7l.722-1.251A.722.722,0,0,0,17.056,36.466Zm14.348.265a.722.722,0,1,0-1.251.722l.722,1.251a.722.722,0,0,0,1.251-.722ZM20.278,37.8a.722.722,0,0,0-.885.511l-.374,1.4a.722.722,0,0,0,.511.885.734.734,0,0,0,.188.025.722.722,0,0,0,.7-.536l.374-1.4A.722.722,0,0,0,20.278,37.8Zm2.014-19.045h2.889a2.169,2.169,0,0,1,2.167,2.167.722.722,0,0,0,1.444,0,3.615,3.615,0,0,0-3.611-3.611h-.722V15.145a.722.722,0,1,0-1.444,0v2.167h-.722a3.615,3.615,0,0,0-3.611,3.611v1.444a3.615,3.615,0,0,0,3.611,3.611h2.889a2.169,2.169,0,0,1,2.167,2.167V29.59a2.169,2.169,0,0,1-2.167,2.167h-.722V27.423a.722.722,0,1,0-1.444,0v4.333h-.722a2.169,2.169,0,0,1-2.167-2.167.722.722,0,0,0-1.444,0A3.615,3.615,0,0,0,22.292,33.2h.722v2.167a.722.722,0,0,0,1.444,0V33.2h.722a3.615,3.615,0,0,0,3.611-3.611V28.145a3.615,3.615,0,0,0-3.611-3.611h-.722V20.2a.722.722,0,0,0-1.444,0v4.333h-.722a2.169,2.169,0,0,1-2.167-2.167V20.923A2.169,2.169,0,0,1,22.292,18.757Z" transform="translate(-4.236 -5.757)" fill="#8d6c9f"/><path d="M10.677,14.676a14.487,14.487,0,0,1,12.51-4.048A.722.722,0,1,0,23.416,9.2,15.89,15.89,0,0,0,9.656,36.124.722.722,0,1,0,10.677,35.1,14.462,14.462,0,0,1,10.677,14.676Zm21.45-1.022a16.167,16.167,0,0,0-1.446-1.281.722.722,0,1,0-.891,1.136,14.683,14.683,0,0,1,1.316,1.167,14.461,14.461,0,0,1,0,20.427.722.722,0,1,0,1.021,1.021A15.908,15.908,0,0,0,32.127,13.654Z" transform="translate(-1.392 -5.389)" fill="#8d6c9f"/></g></g></svg>