<svg xmlns="http://www.w3.org/2000/svg" viewBox="0 0 64 64"><path fill="#ffefb8" d="M4,53H60a3,3,0,0,0,3-3V42l-9-6V28l9-6V14a3,3,0,0,0-3-3H4a3,3,0,0,0-3,3v8l9,6v8L1,42v8A3,3,0,0,0,4,53Z"></path><path fill="#fff6df" d="M54 36V28l9-6V14a3 3 0 0 0-3-3H49.25l-21 42H47.5l8-16zM24.25 53L19 53 40 11 45.25 11 24.25 53zM13.75 53L12 53 33 11 34.75 11 13.75 53z"></path><path fill="#72caaf" d="M4,53H18a3,3,0,0,0,3-3V14a3,3,0,0,0-3-3H4a3,3,0,0,0-3,3v8l9,6v8L1,42v8A3,3,0,0,0,4,53Z"></path><path fill="#fff8f8" d="M26.5 34L27.74 36.26 30 37.5 27.74 38.74 26.5 41 25.26 38.74 23 37.5 25.26 36.26 26.5 34zM54.42 16L55.27 17.56 56.84 18.42 55.27 19.27 54.42 20.84 53.56 19.27 52 18.42 53.56 17.56 54.42 16zM50.35 44.7L50.94 45.77 52 46.35 50.94 46.94 50.35 48 49.77 46.94 48.7 46.35 49.77 45.77 50.35 44.7z"></path><path fill="#8d6c9f" d="M61.58,24.13A3,3,0,0,0,64,21.19V13a3,3,0,0,0-3-3H3a3,3,0,0,0-3,3v8.19a3,3,0,0,0,2.42,2.94,8,8,0,0,1,0,15.75A3,3,0,0,0,0,42.81V51a3,3,0,0,0,3,3H61a3,3,0,0,0,3-3V42.81a3,3,0,0,0-2.42-2.94,8,8,0,0,1,0-15.75ZM53,32a10,10,0,0,0,8.22,9.84,1,1,0,0,1,.78,1V51a1,1,0,0,1-1,1H18a1,1,0,0,0-1-1H15a1,1,0,0,0-1,1H3a1,1,0,0,1-1-1V42.81a1,1,0,0,1,.78-1,10,10,0,0,0,0-19.69,1,1,0,0,1-.78-1V13a1,1,0,0,1,1-1H14a1,1,0,0,0,1,1h2a1,1,0,0,0,1-1H61a1,1,0,0,1,1,1v8.19a1,1,0,0,1-.78,1A10,10,0,0,0,53,32Z"></path><path fill="#8d6c9f" d="M17 16H15a1 1 0 0 0 0 2h2a1 1 0 0 0 0-2zM17 21H15a1 1 0 0 0 0 2h2a1 1 0 0 0 0-2zM17 26H15a1 1 0 0 0 0 2h2a1 1 0 0 0 0-2zM17 31H15a1 1 0 0 0 0 2h2a1 1 0 0 0 0-2zM17 36H15a1 1 0 0 0 0 2h2a1 1 0 0 0 0-2zM17 41H15a1 1 0 0 0 0 2h2a1 1 0 0 0 0-2zM17 46H15a1 1 0 0 0 0 2h2a1 1 0 0 0 0-2zM21 14a1 1 0 0 0-1 1V49a1 1 0 0 0 2 0V15A1 1 0 0 0 21 14z"></path><path fill="#ed7899" d="M47 28H27a1 1 0 0 0 0 2H47a1 1 0 0 0 0-2zM35 34H27a1 1 0 0 0 0 2h8a1 1 0 0 0 0-2zM43 34H39a1 1 0 0 0 0 2h4a1 1 0 0 0 0-2z"></path></svg>