<svg xmlns="http://www.w3.org/2000/svg" width="43.569" height="40" viewBox="0 0 43.569 40"><g transform="translate(-0.053 -3.5)"><path d="M31.466,5H12.855a1.352,1.352,0,0,0-.953.4L2.049,15.245a1.352,1.352,0,0,0-.122,1.777L21.086,42.114a1.352,1.352,0,0,0,2.149,0L42.394,17.022a1.352,1.352,0,0,0-.122-1.777L32.419,5.4A1.352,1.352,0,0,0,31.466,5Z" transform="translate(-0.323 -0.324)" fill="#85cbf8"/><path d="M42.336,5.5l9.853,9.846a1.352,1.352,0,0,1,.122,1.777L33.152,42.212c-.047.068-1.068,0-.892-.466.615-1.744,2.629-6.63,4.676-12.286.912-2.521,2.027-5.21,2.7-7.819.122-.48,1.169-3.379,1.169-3.379L33.612,5.3S42.269,5.422,42.336,5.5Z" transform="translate(-10.24 -0.421)" fill="#7bbeeb"/><path d="M17.07,5.232l8.373-.142L18.631,17.139,16.82,5.428Z" transform="translate(-5.241 -0.353)" fill="#85cbf8"/><path d="M41.751,16.651,42.994,5.4,38.818,5l-4.548.2L41.183,17.11Z" transform="translate(-10.899 -0.324)" fill="#75b8e5"/><path d="M11.9,5.59,2.049,15.436a1.352,1.352,0,0,0-.122,1.777L21.086,42.306c.047.068,1.068,0,.892-.466-.615-1.744-2.629-6.63-4.676-12.286-.912-2.521-2.027-5.21-2.7-7.819-.122-.48-1.054-2.886-1.169-3.379A57.118,57.118,0,0,1,11.9,5.59Z" transform="translate(-0.323 -0.515)" fill="#9fddff"/><path d="M42.429,14.448,32.576,4.595A2.027,2.027,0,0,0,31.143,4H12.532a2.027,2.027,0,0,0-1.433.595L1.246,14.448A2.027,2.027,0,0,0,1.07,17.11L20.229,42.2a2.027,2.027,0,0,0,3.224,0L42.6,17.11a2.027,2.027,0,0,0-.176-2.663ZM31.616,5.554l9.461,9.461L31.3,17.333l.608-5.5a.68.68,0,0,0-1.352-.149l-.412,3.737L24.27,5.352h6.873a.676.676,0,0,1,.48.2ZM12.376,17.333l-9.806-2.3L11.146,6.46ZM22.7,5.352l7.136,12.164h-16L20.972,5.352Zm-3.3,0L13.5,15.421,12.376,5.352a.676.676,0,0,1,.149,0Zm3.67,35.141,4.42-11.9a.676.676,0,0,0-1.264-.473L21.837,39.9,17.451,28.092a.676.676,0,1,0-1.264.473l4.42,11.928L8.943,25.2A.676.676,0,0,0,9,24.95v-.676a.676.676,0,0,0-1.135-.493l-5.7-7.434,10.373,2.44,1.122,3.021a.678.678,0,1,0,1.27-.473l-.912-2.467H29.649l-.912,2.446a.678.678,0,1,0,1.27.473l1.122-3.021L41.5,16.326l-5.7,7.434a.676.676,0,0,0-1.129.514v.676a.676.676,0,0,0,.054.25Z" transform="translate(0)" fill="#8d6c9f" stroke="#8d6c9f" stroke-width="1"/><path d="M23.434,25.191a.676.676,0,0,0-.676.676v1.352a.676.676,0,0,0,1.352,0V25.867A.676.676,0,0,0,23.434,25.191Zm3.379,0a.676.676,0,0,0-.676.676v1.352a.676.676,0,0,0,1.352,0V25.867A.676.676,0,0,0,26.813,25.191Zm3.379,0a.676.676,0,0,0-.676.676v1.352a.676.676,0,1,0,1.352,0V25.867A.676.676,0,0,0,30.192,25.191Zm3.379,0a.676.676,0,0,0-.676.676v1.352a.676.676,0,1,0,1.352,0V25.867A.676.676,0,0,0,33.571,25.191Zm3.379,0a.676.676,0,0,0-.676.676v1.352a.676.676,0,1,0,1.352,0V25.867A.676.676,0,0,0,36.95,25.191Zm-20.274,0a.676.676,0,0,0-.676.676v1.352a.676.676,0,1,0,1.352,0V25.867A.676.676,0,0,0,16.676,25.191Zm3.379,0a.676.676,0,0,0-.676.676v1.352a.676.676,0,1,0,1.352,0V25.867A.676.676,0,0,0,20.055,25.191Zm16.374-13.57H36.5a.676.676,0,0,0,.676-.6l.149-1.352a.68.68,0,1,0-1.352-.149l-.149,1.352a.676.676,0,0,0,.6.75Z" transform="translate(-4.975 -1.593)" fill="#8d6c9f"/></g></svg>