<svg xmlns="http://www.w3.org/2000/svg" width="28" height="21" viewBox="0 0 28 21"><g transform="translate(-26.4 -8.01)"><path d="M43.4,26.01l8-9-6-6h-10l-6,6,8,9" fill="#e3f2ff"/><path d="M45.4,11.01h-3l-2,15h3l8-9Z" fill="#85cbf8"/><path d="M35.4,15.01l4-4h2l4,4v4l-5,6-5-6Z" fill="#ace3ff"/><g fill="none" stroke-linecap="round" stroke-linejoin="round"><path d="M43.4,26.01l8-9-6-6h-10l-6,6,8,9Z" stroke="none"/><path d="M 43.40000152587891 26.01000022888184 L 51.40000152587891 17.01000022888184 L 45.40000152587891 11.01000022888184 L 35.40000152587891 11.01000022888184 L 29.40000152587891 17.01000022888184 L 37.40000152587891 26.01000022888184 L 43.40000152587891 26.01000022888184 M 43.40000152587891 29.01000022888184 L 37.40000152587891 29.01000022888184 C 36.5430908203125 29.01000022888184 35.72706985473633 28.6435604095459 35.15777206420898 28.00308990478516 L 27.15777206420898 19.00308990478516 C 26.10248184204102 17.81587982177734 26.15549087524414 16.01186943054199 27.2786808013916 14.88868045806885 L 33.27868270874023 8.888680458068848 C 33.84129333496094 8.326069831848145 34.60435104370117 8.010000228881836 35.40000152587891 8.010000228881836 L 45.40000152587891 8.010000228881836 C 46.19565200805664 8.010000228881836 46.95870971679688 8.326069831848145 47.52132034301758 8.888680458068848 L 53.52132034301758 14.88868045806885 C 54.64451217651367 16.01186943054199 54.6975212097168 17.81587982177734 53.64223098754883 19.00308990478516 L 45.64223098754883 28.00308990478516 C 45.07293319702148 28.6435604095459 44.25691223144531 29.01000022888184 43.40000152587891 29.01000022888184 Z" stroke="none" fill="#fff"/></g><path d="M43.4,26.01l8-9-6-6h-10l-6,6,8,9Z" fill="none" stroke="#8d6c9f" stroke-linecap="round" stroke-linejoin="round" stroke-width="2"/><path d="M45.4,19.01a1,1,0,0,0,1-1v-2a1,1,0,0,0-2,0v2A1,1,0,0,0,45.4,19.01Zm-5,0a1,1,0,0,0,1-1v-2a1,1,0,0,0-2,0v2A1,1,0,0,0,40.4,19.01Zm-5,0a1,1,0,0,0,1-1v-2a1,1,0,0,0-2,0v2A1,1,0,0,0,35.4,19.01Z" fill="#8d6c9f"/></g></svg>