<svg xmlns="http://www.w3.org/2000/svg" width="84.051" height="70.03" viewBox="0 0 84.051 70.03"><g transform="translate(-2773.056 -157.019)"><path d="M2801.7,164.839l-3.885,4.059-11.264,11.83-4.312,4.5c-2.013-6.1-6.76-21.891-2.875-25.55C2782.932,156.284,2795.468,161.79,2801.7,164.839Z" transform="translate(-0.621 -0.205)" fill="#efc88e"/><path d="M2782.031,186.427a1.169,1.169,0,0,1-.305,0,1.385,1.385,0,0,1-1.019-.923c-3.389-10.218-6.568-23.2-2.509-27,3.127-2.971,11.177-1.307,23.9,4.931a1.393,1.393,0,0,1,.4,2.221l-19.5,20.341a1.385,1.385,0,0,1-.976.436Zm.671-26.63a3.737,3.737,0,0,0-2.614.706c-2.064,1.934-1.062,10.454,2.518,21.865l16.551-17.3c-8.2-3.859-13.494-5.27-16.455-5.27Z" transform="translate(-0.417 -0.006)" fill="#8d6c9f"/><path d="M2784.354,165c-.218,2.187.436,7.344,3.049,15.41l10.915-10.846C2790.635,166.141,2786.253,165.174,2784.354,165Z" transform="translate(-1.451 -1.028)" fill="#acb7d0"/><path d="M2787.195,181.645a1.394,1.394,0,0,1-1.333-.967c-2.239-6.969-3.415-12.919-3.119-15.976a1.394,1.394,0,0,1,1.49-1.272h0c1.463.113,5.793.793,14.443,4.687a1.393,1.393,0,0,1,.706,1.847,1.377,1.377,0,0,1-.287.418l-10.906,10.854A1.421,1.421,0,0,1,2787.195,181.645Zm-1.621-15.2a51.538,51.538,0,0,0,2.317,11.177l7.84-7.77A53.15,53.15,0,0,0,2785.574,166.444Z" transform="translate(-1.242 -0.826)" fill="#8d6c9f"/><path d="M2856.832,185.222l-4.3-4.5L2841.265,168.9l-3.885-4.059c6.228-3.049,18.755-8.554,22.336-5.166C2863.592,163.3,2858.827,179.142,2856.832,185.222Z" transform="translate(-8.289 -0.205)" fill="#efc88e"/><path d="M2856.634,186.42a1.42,1.42,0,0,1-1.019-.436L2836.162,165.6a1.394,1.394,0,0,1,.043-1.977,1.2,1.2,0,0,1,.349-.244c12.736-6.246,20.785-7.9,23.912-4.922,4.051,3.807.871,16.787-2.509,27a1.4,1.4,0,0,1-1.019.923A1.26,1.26,0,0,1,2856.634,186.42Zm-17.118-21.36,16.49,17.3c3.589-11.455,4.591-19.923,2.526-21.857C2857.017,159.041,2851.215,159.537,2839.516,165.06Z" transform="translate(-8.083)" fill="#8d6c9f"/><path d="M2856.178,165c-1.9.157-6.281,1.211-13.938,4.974l10.924,11.839C2855.734,173.049,2856.4,167.413,2856.178,165Z" transform="translate(-8.916 -1.028)" fill="#acb7d0"/><path d="M2852.915,183.092a1.393,1.393,0,0,1-1.028-.453l-10.941-11.882a1.4,1.4,0,0,1,.079-1.977,1.749,1.749,0,0,1,.339-.226c8.659-4.242,13.006-4.992,14.47-5.114a1.4,1.4,0,0,1,1.516,1.272c.1,1.237.209,6.15-3.11,17.335a1.412,1.412,0,0,1-1.028.967A1.929,1.929,0,0,1,2852.915,183.092Zm-8.607-12.8,7.945,8.607a61.043,61.043,0,0,0,2.334-12.387,50.173,50.173,0,0,0-10.279,3.737Z" transform="translate(-8.701 -0.827)" fill="#8d6c9f"/><path d="M2855.91,197.308c-1.159,7.1-6.211,14.957-14.112,19.984a33.643,33.643,0,0,1-14.147,4.974h-24.723c-15.9-1.742-26.5-14.26-28.268-24.958,8.824-8.912,12.37-33.878,40.629-33.878S2847.085,188.4,2855.91,197.308Z" transform="translate(-0.207 -0.826)" fill="#ed7899"/><path d="M2817.578,171.838a32.23,32.23,0,0,1,5.863.505,4.617,4.617,0,0,0,5.3-3.485h0a3.772,3.772,0,0,0-2.718-4.6h-.14a40.224,40.224,0,0,0-8.3-.819h0c-11.394,0-18.773,4.068-24.1,9.487a3.772,3.772,0,0,0,.1,5.349c.1.087.192.174.3.253h0a4.608,4.608,0,0,0,6.045-.209c4.068-3.911,9.443-6.5,17.623-6.5" transform="translate(-2.495 -0.827)" fill="#f7a1c8"/><path d="M2827.444,223.463h-24.879c-16.665-1.864-27.632-14.809-29.488-26.134a1.377,1.377,0,0,1,.383-1.211,47.053,47.053,0,0,0,6.351-9.582c6.15-11,13.807-24.7,35.272-24.7s29.122,13.694,35.272,24.7a46.671,46.671,0,0,0,6.35,9.582,1.4,1.4,0,0,1,.384,1.211c-1.307,7.962-6.969,15.985-14.74,20.907a35.188,35.188,0,0,1-14.748,5.183Zm-24.653-2.8h24.575a32.492,32.492,0,0,0,13.485-4.765c6.908-4.4,11.969-11.377,13.354-18.355a53.013,53.013,0,0,1-6.289-9.661c-5.793-10.366-13.015-23.259-32.833-23.259s-27.005,12.893-32.833,23.259a53.78,53.78,0,0,1-6.29,9.661c2.012,10.079,11.926,21.4,26.84,23.12Z" transform="translate(0 -0.621)" fill="#8d6c9f"/><path d="M2826.173,175.816h-.192a1.4,1.4,0,0,1-1.193-1.585h0l.383-2.77a1.4,1.4,0,1,1,2.779.383l-.392,2.779A1.411,1.411,0,0,1,2826.173,175.816Z" transform="translate(-6.665 -1.705)" fill="#8d6c9f"/><path d="M2817.756,175.616a1.411,1.411,0,0,1-1.4-1.281l-.235-2.8a1.4,1.4,0,1,1,2.787-.314v.078l.244,2.788a1.4,1.4,0,0,1-1.281,1.516Z" transform="translate(-5.548 -1.67)" fill="#8d6c9f"/><path d="M2809.64,177.471a1.4,1.4,0,0,1-1.3-.871l-1.037-2.613a1.4,1.4,0,0,1,2.614-1.028l1.045,2.613a1.411,1.411,0,0,1-.784,1.821,1.5,1.5,0,0,1-.522.1Z" transform="translate(-4.401 -1.939)" fill="#8d6c9f"/><path d="M2802.519,181.844a1.412,1.412,0,0,1-1.046-.47l-1.855-2.1a1.4,1.4,0,1,1,2.1-1.864l1.856,2.1a1.394,1.394,0,0,1-.122,1.977,1.359,1.359,0,0,1-.933.357Z" transform="translate(-3.377 -2.567)" fill="#8d6c9f"/><path d="M2812.8,195.209a4.286,4.286,0,0,1-4.007,4.46l-6,2.108c-2,0-4.008-1.838-4.008-5.227a7.274,7.274,0,0,1,7.2-7.361h.313C2811.045,189.164,2812.8,192.309,2812.8,195.209Z" transform="translate(-3.315 -4.146)" fill="#efd8be"/><path d="M2802.581,202.96c-2.614,0-5.4-2.326-5.4-6.647a8.642,8.642,0,0,1,8.511-8.764h.392c5.462,0,7.9,3.737,7.9,7.448a5.663,5.663,0,0,1-5.14,5.854l-5.8,2.03a1.394,1.394,0,0,1-.462.078Zm3.484-12.605a5.889,5.889,0,0,0-6.1,5.688v.27c0,2.387,1.176,3.7,2.4,3.833l5.75-2a1.4,1.4,0,0,1,.462-.078,2.91,2.91,0,0,0,2.614-3.066c0-1.089-.366-4.643-5.1-4.643Z" transform="translate(-3.109 -3.935)" fill="#8d6c9f"/><g transform="translate(2799.673 190.628)"><circle cx="3.502" cy="3.502" r="3.502" transform="translate(0 0)" fill="#8d6c9f"/></g><g transform="translate(2819.278 183.611)"><path d="M2827.729,195.209a4.286,4.286,0,0,0,4.007,4.46l6,2.108c1.994,0,4-1.838,4-5.227a7.273,7.273,0,0,0-7.2-7.361h-.305C2829.48,189.164,2827.729,192.309,2827.729,195.209Z" transform="translate(-2826.323 -187.757)" fill="#efd8be"/><path d="M2837.531,202.96a1.394,1.394,0,0,1-.462-.078l-5.8-2.03a5.68,5.68,0,0,1-5.148-5.854c0-3.711,2.448-7.448,7.91-7.448a8.642,8.642,0,0,1,8.9,8.372v.392C2842.932,200.634,2840.153,202.96,2837.531,202.96Zm-3.485-12.605c-4.739,0-5.1,3.554-5.1,4.643a2.892,2.892,0,0,0,2.614,3.066,1.39,1.39,0,0,1,.461.078l5.741,2c1.219-.139,2.4-1.446,2.4-3.833a5.89,5.89,0,0,0-5.837-5.959Z" transform="translate(-2826.116 -187.545)" fill="#8d6c9f"/></g><g transform="translate(2823.489 190.628)"><circle cx="3.502" cy="3.502" r="3.502" transform="translate(0 0)" fill="#8d6c9f"/></g><g transform="translate(2798.27 197.632)"><path d="M2819.02,205.24c-4.634,0-15.41,6.655-15.41,16.639,0,6.525,10.583,9.983,15.41,9.983s15.41-3.485,15.41-9.983C2834.439,211.9,2823.655,205.24,2819.02,205.24Z" transform="translate(-2802.208 -203.846)" fill="#efd8be"/><path d="M2818.813,233.058c-5.706,0-16.812-4.025-16.812-11.386,0-10.454,11.054-18.032,16.813-18.032s16.813,7.614,16.813,18.032C2835.625,229.033,2824.519,233.058,2818.813,233.058Zm0-26.622c-4.042,0-14.007,6.1-14.007,15.236,0,5.227,9.2,8.581,14.007,8.581s14.008-3.345,14.008-8.581C2832.82,212.508,2822.854,206.436,2818.813,206.436Z" transform="translate(-2802 -203.64)" fill="#8d6c9f"/></g><g transform="translate(2834.691 196.177)"><path d="M2856.631,209.174c0,4.181-2.492,9.077-5.593,12.8a35.417,35.417,0,0,1-5.584,2.692,14.1,14.1,0,0,0,1.873-6.612c0-4.87-1.908-5.07-1.908-8.859h0a5.6,5.6,0,0,1,11.2,0Z" transform="translate(-2844.017 -202.179)" fill="#efd8be"/><path d="M2845.248,225.839a1.4,1.4,0,0,1-1.4-1.4,1.437,1.437,0,0,1,.175-.68,12.666,12.666,0,0,0,1.7-5.932,9.772,9.772,0,0,0-.932-4.5,9.951,9.951,0,0,1-.976-4.356,7,7,0,0,1,14.008,0c0,4.129-2.2,9.251-5.906,13.694a1.378,1.378,0,0,1-.366.3,36.7,36.7,0,0,1-5.8,2.805,1.572,1.572,0,0,1-.5.061Zm5.566-21.02a4.355,4.355,0,0,0-4.225,4.147,7.257,7.257,0,0,0,.749,3.284,12.527,12.527,0,0,1,1.159,5.593,13.568,13.568,0,0,1-.619,3.92c.68-.331,1.342-.7,2.012-1.08,3.154-3.859,5.105-8.328,5.105-11.717a4.356,4.356,0,0,0-4.182-4.147ZM2850.813,221.745Z" transform="translate(-2843.809 -201.97)" fill="#8d6c9f"/></g><g transform="translate(2781.457 196.151)"><path d="M2784.31,209.205c0,4.181,2.482,9.077,5.583,12.8a36.2,36.2,0,0,0,5.584,2.692,14.089,14.089,0,0,1-1.864-6.612c0-4.87,1.907-5.07,1.907-8.859h0a5.61,5.61,0,0,0-11.212,0Z" transform="translate(-2782.907 -202.184)" fill="#efd8be"/><path d="M2795.27,225.835a1.351,1.351,0,0,1-.488-.1,37.1,37.1,0,0,1-5.811-2.8,1.392,1.392,0,0,1-.357-.314c-3.7-4.434-5.915-9.582-5.915-13.685a7,7,0,0,1,14.008,0,9.9,9.9,0,0,1-.967,4.356,9.759,9.759,0,0,0-.932,4.495,12.651,12.651,0,0,0,1.742,5.932,1.411,1.411,0,0,1-1.237,2.082Zm-4.661-5.227c.662.392,1.333.749,2,1.089a13.614,13.614,0,0,1-.61-3.92,12.42,12.42,0,0,1,1.159-5.6,7.261,7.261,0,0,0,.749-3.258,4.207,4.207,0,0,0-8.406,0c0,3.415,1.951,7.884,5.1,11.734Z" transform="translate(-2782.7 -201.94)" fill="#8d6c9f"/></g><g transform="translate(2809.481 206.029)"><path d="M2826.073,215.484c0,2.657-2.962,4.809-5.6,4.809s-5.6-2.152-5.6-4.809c0-2.082,2.509-2.2,5.6-2.2S2826.073,213.437,2826.073,215.484Z" transform="translate(-2814.87 -213.28)" fill="#8d6c9f"/></g></g></svg>