<svg xmlns="http://www.w3.org/2000/svg" width="100.766" height="87.765" viewBox="0 0 100.766 87.765"><g transform="matrix(0.966, -0.259, 0.259, 0.966, -183.966, -273.966)"><g transform="translate(100.056 333.019)"><path d="M2802.586,165.071l-4.03,4.211-11.685,12.272-4.473,4.672c-2.087-6.326-7.013-22.709-2.982-26.5C2783.121,156.2,2796.125,161.909,2802.586,165.071Z" transform="translate(-2773.52 -157.173)" fill="#efc88e"/><path d="M2782.246,187.524a1.216,1.216,0,0,1-.317,0,1.437,1.437,0,0,1-1.057-.958c-3.516-10.6-6.814-24.065-2.6-28.014,3.244-3.082,11.594-1.356,24.8,5.115a1.446,1.446,0,0,1,.416,2.3l-20.224,21.1a1.438,1.438,0,0,1-1.012.452Zm.7-27.625a3.877,3.877,0,0,0-2.711.732c-2.142,2.006-1.1,10.844,2.612,22.682l17.17-17.947c-8.5-4-14-5.467-17.071-5.467Z" transform="translate(-2773.368 -157.024)" fill="#8d6c9f"/><path d="M2784.356,165c-.226,2.268.452,7.618,3.163,15.986l11.323-11.251C2790.872,166.184,2786.326,165.181,2784.356,165Z" transform="translate(-2774.141 -157.788)" fill="#acb7d0"/><path d="M2787.363,182.326a1.446,1.446,0,0,1-1.383-1c-2.323-7.229-3.542-13.4-3.235-16.574a1.446,1.446,0,0,1,1.545-1.319h0c1.518.117,6.01.822,14.983,4.862a1.445,1.445,0,0,1,.732,1.916,1.429,1.429,0,0,1-.3.434l-11.314,11.26A1.473,1.473,0,0,1,2787.363,182.326Zm-1.681-15.769a53.444,53.444,0,0,0,2.4,11.594l8.133-8.061A55.148,55.148,0,0,0,2785.682,166.556Z" transform="translate(-2773.985 -157.636)" fill="#8d6c9f"/><path d="M2857.559,186.217l-4.464-4.672-11.685-12.263-4.03-4.211c6.461-3.163,19.456-8.874,23.17-5.359C2864.572,163.48,2859.629,179.909,2857.559,186.217Z" transform="translate(-2779.252 -157.172)" fill="#efc88e"/><path d="M2857.413,187.519a1.473,1.473,0,0,1-1.057-.452l-20.179-21.146a1.446,1.446,0,0,1,.045-2.051,1.238,1.238,0,0,1,.361-.253c13.212-6.479,21.562-8.2,24.806-5.106,4.2,3.949.9,17.414-2.6,28.014a1.452,1.452,0,0,1-1.057.958A1.309,1.309,0,0,1,2857.413,187.519Zm-17.757-22.158,17.107,17.947c3.723-11.883,4.762-20.667,2.621-22.673C2857.811,159.116,2851.792,159.632,2839.656,165.361Z" transform="translate(-2779.097 -157.019)" fill="#8d6c9f"/><path d="M2856.7,165c-1.97.163-6.516,1.256-14.459,5.16l11.333,12.281C2856.238,173.35,2856.925,167.5,2856.7,165Z" transform="translate(-2779.72 -157.788)" fill="#acb7d0"/><path d="M2853.376,183.826a1.445,1.445,0,0,1-1.066-.47l-11.351-12.326a1.455,1.455,0,0,1,.082-2.051,1.808,1.808,0,0,1,.353-.235c8.982-4.4,13.492-5.178,15.01-5.3a1.455,1.455,0,0,1,1.573,1.319c.108,1.283.217,6.38-3.226,17.983a1.466,1.466,0,0,1-1.066,1A1.992,1.992,0,0,1,2853.376,183.826Zm-8.928-13.275,8.242,8.928a63.3,63.3,0,0,0,2.421-12.85,52.043,52.043,0,0,0-10.663,3.877Z" transform="translate(-2779.56 -157.637)" fill="#8d6c9f"/><path d="M2858.946,198.574c-1.2,7.365-6.443,15.516-14.64,20.73a34.9,34.9,0,0,1-14.676,5.16h-25.646c-16.492-1.807-27.49-14.793-29.324-25.89,9.154-9.245,12.832-35.144,42.148-35.144S2849.792,189.329,2858.946,198.574Z" transform="translate(-2773.211 -157.637)" fill="#ed7899"/><path d="M2818.518,172.151a33.439,33.439,0,0,1,6.082.524,4.79,4.79,0,0,0,5.495-3.615h0a3.913,3.913,0,0,0-2.82-4.771h-.145a41.728,41.728,0,0,0-8.612-.849h0c-11.82,0-19.475,4.22-25,9.841a3.913,3.913,0,0,0,.1,5.549c.1.09.2.181.308.262h0a4.781,4.781,0,0,0,6.271-.217c4.22-4.058,9.8-6.741,18.281-6.741" transform="translate(-2774.921 -157.638)" fill="#f7a1c8"/><path d="M2829.477,225.766h-25.809c-17.288-1.934-28.665-15.363-30.59-27.11a1.427,1.427,0,0,1,.4-1.256,48.809,48.809,0,0,0,6.588-9.94c6.38-11.414,14.324-25.619,36.59-25.619s30.21,14.206,36.59,25.619a48.435,48.435,0,0,0,6.587,9.94,1.454,1.454,0,0,1,.4,1.256c-1.356,8.26-7.23,16.583-15.291,21.688a36.5,36.5,0,0,1-15.3,5.377Zm-25.574-2.9H2829.4a33.71,33.71,0,0,0,13.989-4.943c7.166-4.564,12.416-11.8,13.853-19.041a54.987,54.987,0,0,1-6.524-10.022c-6.01-10.754-13.5-24.128-34.06-24.128s-28.014,13.374-34.06,24.128a55.777,55.777,0,0,1-6.525,10.022c2.088,10.456,12.372,22.2,27.843,23.984Z" transform="translate(-2773.056 -157.484)" fill="#8d6c9f"/><path d="M2826.225,176.024h-.2a1.455,1.455,0,0,1-1.238-1.645h0l.4-2.874a1.455,1.455,0,1,1,2.882.4l-.407,2.883A1.463,1.463,0,0,1,2826.225,176.024Z" transform="translate(-2778.038 -158.294)" fill="#8d6c9f"/><path d="M2817.818,175.827a1.464,1.464,0,0,1-1.455-1.328l-.244-2.9a1.455,1.455,0,1,1,2.892-.325v.081l.253,2.892a1.455,1.455,0,0,1-1.329,1.572Z" transform="translate(-2777.203 -158.268)" fill="#8d6c9f"/><path d="M2809.731,177.673a1.455,1.455,0,0,1-1.346-.9l-1.075-2.711a1.457,1.457,0,0,1,2.711-1.066l1.084,2.711a1.464,1.464,0,0,1-.813,1.889,1.56,1.56,0,0,1-.542.1Z" transform="translate(-2776.346 -158.469)" fill="#8d6c9f"/><path d="M2802.641,182.028a1.464,1.464,0,0,1-1.084-.488l-1.925-2.178a1.456,1.456,0,1,1,2.178-1.934l1.925,2.178a1.447,1.447,0,0,1-.126,2.051,1.411,1.411,0,0,1-.968.37Z" transform="translate(-2775.581 -158.938)" fill="#8d6c9f"/><path d="M2813.32,195.434a4.446,4.446,0,0,1-4.157,4.627l-6.226,2.187c-2.079,0-4.158-1.907-4.158-5.422a7.546,7.546,0,0,1,7.465-7.636h.325C2811.5,189.163,2813.32,192.425,2813.32,195.434Z" transform="translate(-2775.534 -160.118)" fill="#efd8be"/><path d="M2802.783,203.536c-2.711,0-5.6-2.413-5.6-6.9a8.965,8.965,0,0,1,8.829-9.091h.407c5.666,0,8.2,3.877,8.2,7.726a5.874,5.874,0,0,1-5.332,6.073l-6.019,2.106a1.445,1.445,0,0,1-.479.081Zm3.615-13.076a6.109,6.109,0,0,0-6.326,5.9v.28c0,2.476,1.22,3.841,2.485,3.976l5.964-2.078a1.451,1.451,0,0,1,.479-.081,3.019,3.019,0,0,0,2.711-3.181c0-1.13-.38-4.817-5.3-4.817Z" transform="translate(-2775.38 -159.96)" fill="#8d6c9f"/><g transform="translate(27.611 34.865)"><circle cx="3.633" cy="3.633" r="3.633" transform="translate(0 0)" fill="#8d6c9f"/></g><g transform="translate(47.949 27.586)"><path d="M2827.729,195.434a4.447,4.447,0,0,0,4.157,4.627l6.227,2.187c2.069,0,4.147-1.907,4.147-5.422a7.545,7.545,0,0,0-7.464-7.636h-.317C2829.546,189.163,2827.729,192.425,2827.729,195.434Z" transform="translate(-2826.271 -187.704)" fill="#efd8be"/><path d="M2837.958,203.536a1.447,1.447,0,0,1-.479-.081l-6.019-2.106a5.892,5.892,0,0,1-5.34-6.073c0-3.85,2.54-7.726,8.206-7.726a8.964,8.964,0,0,1,9.235,8.684v.407C2843.561,201.123,2840.678,203.536,2837.958,203.536Zm-3.615-13.076c-4.916,0-5.3,3.687-5.3,4.817a3,3,0,0,0,2.711,3.181,1.445,1.445,0,0,1,.479.081l5.955,2.078c1.265-.145,2.485-1.5,2.485-3.976a6.109,6.109,0,0,0-6.055-6.181Z" transform="translate(-2826.116 -187.545)" fill="#8d6c9f"/></g><g transform="translate(52.317 34.865)"><circle cx="3.633" cy="3.633" r="3.633" transform="translate(0 0)" fill="#8d6c9f"/></g><g transform="translate(26.156 42.13)"><path d="M2819.6,205.24c-4.808,0-15.986,6.9-15.986,17.26,0,6.769,10.979,10.356,15.986,10.356s15.986-3.615,15.986-10.356C2835.591,212.144,2824.4,205.24,2819.6,205.24Z" transform="translate(-2802.155 -203.794)" fill="#efd8be"/><path d="M2819.441,234.157c-5.919,0-17.441-4.175-17.441-11.811,0-10.844,11.468-18.706,17.441-18.706s17.441,7.9,17.441,18.706C2836.882,229.982,2825.36,234.157,2819.441,234.157Zm0-27.616c-4.193,0-14.531,6.326-14.531,15.805,0,5.422,9.543,8.9,14.531,8.9s14.531-3.47,14.531-8.9C2833.973,212.839,2823.634,206.541,2819.441,206.541Z" transform="translate(-2802 -203.64)" fill="#8d6c9f"/></g><g transform="translate(63.938 40.621)"><path d="M2857.051,209.383c0,4.338-2.585,9.416-5.8,13.275a36.743,36.743,0,0,1-5.793,2.792,14.628,14.628,0,0,0,1.943-6.859c0-5.052-1.979-5.259-1.979-9.19h0a5.811,5.811,0,0,1,11.622,0Z" transform="translate(-2843.965 -202.126)" fill="#efd8be"/><path d="M2845.3,226.731a1.455,1.455,0,0,1-1.455-1.455,1.494,1.494,0,0,1,.181-.7,13.139,13.139,0,0,0,1.762-6.154,10.129,10.129,0,0,0-.967-4.663,10.326,10.326,0,0,1-1.012-4.518,7.266,7.266,0,0,1,14.531,0c0,4.283-2.287,9.6-6.127,14.206a1.417,1.417,0,0,1-.379.316,38.063,38.063,0,0,1-6.018,2.91,1.629,1.629,0,0,1-.515.063Zm5.774-21.806a4.518,4.518,0,0,0-4.383,4.3,7.538,7.538,0,0,0,.777,3.407,12.994,12.994,0,0,1,1.2,5.8,14.048,14.048,0,0,1-.642,4.067c.705-.343,1.392-.723,2.088-1.121,3.271-4,5.3-8.639,5.3-12.154A4.518,4.518,0,0,0,2851.076,204.925ZM2851.076,222.484Z" transform="translate(-2843.81 -201.97)" fill="#8d6c9f"/></g><g transform="translate(8.715 40.594)"><path d="M2784.31,209.406c0,4.338,2.576,9.416,5.792,13.275a37.555,37.555,0,0,0,5.793,2.792,14.616,14.616,0,0,1-1.934-6.859c0-5.052,1.979-5.259,1.979-9.19h0a5.82,5.82,0,0,0-11.63,0Z" transform="translate(-2782.855 -202.122)" fill="#efd8be"/><path d="M2795.74,226.728a1.4,1.4,0,0,1-.506-.1,38.473,38.473,0,0,1-6.027-2.9,1.427,1.427,0,0,1-.371-.325c-3.84-4.6-6.136-9.941-6.136-14.2a7.265,7.265,0,1,1,14.531,0,10.258,10.258,0,0,1-1,4.518,10.122,10.122,0,0,0-.967,4.663,13.13,13.13,0,0,0,1.807,6.154,1.464,1.464,0,0,1-1.283,2.16Zm-4.835-5.422c.687.407,1.383.777,2.079,1.13a14.112,14.112,0,0,1-.633-4.067,12.889,12.889,0,0,1,1.2-5.811,7.537,7.537,0,0,0,.777-3.38,4.365,4.365,0,0,0-8.72,0c0,3.542,2.023,8.178,5.295,12.173Z" transform="translate(-2782.7 -201.94)" fill="#8d6c9f"/></g><g transform="translate(37.787 50.842)"><path d="M2826.491,215.566c0,2.756-3.072,4.988-5.811,4.988s-5.811-2.232-5.811-4.988c0-2.16,2.6-2.286,5.811-2.286S2826.491,213.443,2826.491,215.566Z" transform="translate(-2814.87 -213.28)" fill="#8d6c9f"/></g></g><g transform="translate(140.185 347.005)"><path d="M60.877,13.595,48.258,12.6,43.439,1l-4.82,11.6L26,13.595l9.688,8.719L32.782,34.908l10.657-6.782L54.1,34.908,51.189,22.314Z" transform="translate(-26 -1)" fill="#f6d397"/><path d="M43.439,1l-4.82,11.6L26,13.595l9.688,8.719L32.782,34.908l10.657-6.782Z" transform="translate(-26 -1)" fill="#f9e3ae"/><path d="M60.877,13.595,48.258,12.6,43.439,1l-4.82,11.6L26,13.595l9.688,8.719L32.782,34.908l10.657-6.782L54.1,34.908,51.189,22.314Z" transform="translate(-26 -1)" fill="none" stroke="#8d6c9f" stroke-linejoin="round" stroke-miterlimit="10" stroke-width="3"/></g><g transform="translate(111.6 347.523)"><path d="M60.877,13.595,48.258,12.6,43.439,1l-4.82,11.6L26,13.595l9.688,8.719L32.782,34.908l10.657-6.782L54.1,34.908,51.189,22.314Z" transform="translate(-26 -1)" fill="#f6d397"/><path d="M43.439,1l-4.82,11.6L26,13.595l9.688,8.719L32.782,34.908l10.657-6.782Z" transform="translate(-26 -1)" fill="#f9e3ae"/><path d="M60.877,13.595,48.258,12.6,43.439,1l-4.82,11.6L26,13.595l9.688,8.719L32.782,34.908l10.657-6.782L54.1,34.908,51.189,22.314Z" transform="translate(-26 -1)" fill="none" stroke="#8d6c9f" stroke-linejoin="round" stroke-miterlimit="10" stroke-width="3"/></g></g></svg>