<svg xmlns="http://www.w3.org/2000/svg" width="103.917" height="99.641" viewBox="0 0 103.917 99.641"><g transform="matrix(0.966, 0.259, -0.259, 0.966, 19.889, -7.566)"><path d="M82.591,22.54H8V10.108A3.107,3.107,0,0,1,11.108,7H79.483a3.107,3.107,0,0,1,3.108,3.108Z" transform="translate(2.208 0)" fill="#ced8ed"/><path d="M82.591,27H8V73.619H82.591Z" transform="translate(2.208 11.079)" fill="#faefde"/><path d="M84.822,17l5.942,17.459a4.479,4.479,0,0,1,.042,2.82c-.611,1.84-2.463,4.584-7.538,4.584-6.216,0-9.324-6.216-12.432-6.216s-3.108,6.216-10.878,6.216c-6.2,0-9.344-6.18-12.444-6.216-3.1.036-6.245,6.216-12.444,6.216-7.77,0-7.77-6.216-10.878-6.216s-6.216,6.216-12.432,6.216c-5.075,0-6.928-2.744-7.538-4.584a4.479,4.479,0,0,1,.042-2.82L10.208,17Z" transform="translate(0 5.54)" fill="#ed7899"/><path d="M86.2,24.77,83.557,17H8.943L6.3,24.77Z" transform="translate(1.265 5.54)" fill="#f283a5"/><path d="M8,47H82.591V59.432a3.107,3.107,0,0,1-3.108,3.108H11.108A3.107,3.107,0,0,1,8,59.432Z" transform="translate(2.208 22.159)" fill="#efd8be"/><path d="M14.108,10a3.108,3.108,0,1,0,3.108,3.108A3.108,3.108,0,0,0,14.108,10Z" transform="translate(3.87 1.662)" fill="#ed7899"/><path d="M20.108,10a3.108,3.108,0,1,0,3.108,3.108A3.108,3.108,0,0,0,20.108,10Z" transform="translate(7.194 1.662)" fill="#ffeb9b"/><path d="M26.108,10a3.108,3.108,0,1,0,3.108,3.108A3.108,3.108,0,0,0,26.108,10Z" transform="translate(10.518 1.662)" fill="#72caaf"/><path d="M17.554,37h15.54a1.555,1.555,0,0,1,1.554,1.554V68.079H16V38.554A1.555,1.555,0,0,1,17.554,37Z" transform="translate(6.64 16.619)" fill="#f9dd8f"/><path d="M37.554,37h15.54a1.555,1.555,0,0,1,1.554,1.554V50.986a1.555,1.555,0,0,1-1.554,1.554H37.554A1.555,1.555,0,0,1,36,50.986V38.554A1.555,1.555,0,0,1,37.554,37Z" transform="translate(17.719 16.619)" fill="#bbdef9"/><path d="M84.822,17.007l5.942,17.459a4.479,4.479,0,0,1,.042,2.82c-.611,1.84-2.463,4.584-7.538,4.584-6.216,0-9.324-6.216-12.432-6.216S67.728,41.87,59.958,41.87c-6.2,0-9.344-6.18-12.444-6.216-3.1.036-6.245,6.216-12.444,6.216-7.77,0-7.77-6.216-10.878-6.216S17.976,41.87,11.76,41.87c-5.075,0-6.928-2.744-7.538-4.584a4.479,4.479,0,0,1,.042-2.82l5.944-17.459m37.3,7.77V35.654M26.86,17,24.194,29.438m43.951-12.45,2.668,12.45m0,34.187H55.273a1.555,1.555,0,0,1-1.554-1.554V49.64a1.555,1.555,0,0,1,1.554-1.554h15.54a1.555,1.555,0,0,1,1.554,1.554V62.072A1.555,1.555,0,0,1,70.813,63.626ZM22.64,79.166V49.64a1.555,1.555,0,0,1,1.554-1.554h15.54a1.555,1.555,0,0,1,1.554,1.554V79.166M16.424,69.842V72.95M35.072,62.072V65.18M47.5,69.842V72.95m7.77-3.108V72.95m7.77-3.108V72.95m7.77-3.108V72.95m7.77-3.108V72.95" transform="translate(0 5.533)" fill="none" stroke="#8d6c9f" stroke-linecap="round" stroke-linejoin="round" stroke-miterlimit="10" stroke-width="3"/><path d="M82.591,22.54H8V10.108A3.107,3.107,0,0,1,11.108,7H79.483a3.107,3.107,0,0,1,3.108,3.108Zm0,24.864V81.591A3.107,3.107,0,0,1,79.483,84.7H11.108A3.107,3.107,0,0,1,8,81.591V47.4M8,69.159H20.177m18.9,0H45.3m31.079,0h6.216" transform="translate(2.208 0)" fill="none" stroke="#8d6c9f" stroke-linecap="round" stroke-linejoin="round" stroke-miterlimit="10" stroke-width="3"/></g></svg>